<svg width="217" height="50" viewBox="0 0 217 50" fill="none" xmlns="http://www.w3.org/2000/svg">
<path d="M216.134 0.790039C215.232 0.962855 214.551 1.75441 214.551 2.70605C214.551 3.65769 215.232 4.4482 216.134 4.62109V5.26758C215.232 5.44039 214.551 6.23193 214.551 7.18359C214.551 8.13508 215.233 8.92569 216.134 9.09863V9.74414C215.233 9.91698 214.551 10.7086 214.551 11.6602C214.551 12.6118 215.232 13.4023 216.134 13.5752V14.2217C215.377 14.3667 214.776 14.9478 214.603 15.6934C209.821 16.1028 206.067 20.1122 206.067 25C206.067 29.8765 209.803 33.8775 214.569 34.3027C214.679 35.1368 215.315 35.8038 216.134 35.9609V36.6064C215.232 36.7793 214.551 37.5708 214.551 38.5225C214.551 39.4741 215.233 40.2646 216.134 40.4375V41.083C215.232 41.2558 214.551 42.0475 214.551 42.999C214.551 43.9507 215.232 44.7412 216.134 44.9141V45.5596C215.233 45.7324 214.551 46.5241 214.551 47.4756C214.551 48.4272 215.232 49.2177 216.134 49.3906V50H0V49.3906C0.901102 49.2176 1.58301 48.4271 1.58301 47.4756C1.58273 46.5243 0.901028 45.7326 0 45.5596V44.9141C0.901102 44.741 1.58301 43.9505 1.58301 42.999C1.58286 42.0476 0.901114 41.256 0 41.083V40.4375C0.901079 40.2644 1.58297 39.4739 1.58301 38.5225C1.58296 37.5709 0.901178 36.7794 0 36.6064V35.9609C0.818451 35.8037 1.45443 35.1367 1.56445 34.3027C6.33021 33.8774 10.0664 29.8764 10.0664 25C10.0664 20.1123 6.31287 16.103 1.53125 15.6934C1.35741 14.9479 0.756351 14.3668 0 14.2217V13.5752C0.901102 13.4021 1.58301 12.6117 1.58301 11.6602C1.58284 10.7087 0.9011 9.91713 0 9.74414V9.09863C0.900995 8.92554 1.58284 8.13494 1.58301 7.18359C1.58296 6.23207 0.901178 5.44054 0 5.26758V4.62109C0.901102 4.44804 1.58301 3.65755 1.58301 2.70605C1.58294 1.75454 0.901165 0.963001 0 0.790039V0H216.134V0.790039Z" fill="#000F3D"/>
</svg>
