<svg width="614" height="100" viewBox="0 0 614 100" fill="none" xmlns="http://www.w3.org/2000/svg">
<rect width="325.148" height="100" fill="white"/>
<path d="M613.89 100H292.742C290.533 100 288.741 98.2091 288.741 96V95.1289C290.804 95.1289 292.478 93.4553 292.478 91.3916C292.478 89.3281 290.804 87.6553 288.741 87.6553V85.9307C290.804 85.9307 292.478 84.257 292.478 82.1934C292.478 80.1298 290.804 78.457 288.741 78.457V76.7324C290.804 76.7324 292.478 75.0588 292.478 72.9951C292.478 70.9316 290.804 69.2588 288.741 69.2588V67.5342C288.999 67.5342 289.252 67.5071 289.496 67.457C298.796 67.0616 306.215 59.3981 306.215 50C306.215 40.6019 298.796 32.9374 289.496 32.542C289.252 32.492 288.999 32.4658 288.741 32.4658V30.7412C290.804 30.7412 292.478 29.0676 292.478 27.0039C292.478 24.9404 290.804 23.2676 288.741 23.2676V21.543C290.804 21.543 292.478 19.8693 292.478 17.8057C292.478 15.7421 290.804 14.0693 288.741 14.0693V12.3447C290.804 12.3447 292.478 10.6719 292.478 8.6084C292.478 6.54475 290.804 4.87109 288.741 4.87109V4C288.741 1.79086 290.533 0 292.742 0H613.89V100Z" fill="#010F3E"/>
</svg>
